Coordinates
version=1
nRows=10
nColumns=40
inDegrees=yes

Units are S.I. units (second, meters, Newtons, ...)
If the header above contains a line with 'inDegrees', this indicates whether rotational values are in degrees (yes) or radians (no).

endheader
time	pelvis_tilt	pelvis_list	pelvis_rotation	pelvis_tx	pelvis_ty	pelvis_tz	hip_flexion_r	hip_adduction_r	hip_rotation_r	knee_angle_r	knee_angle_r_beta	ankle_angle_r	subtalar_angle_r	mtp_angle_r	hip_flexion_l	hip_adduction_l	hip_rotation_l	knee_angle_l	knee_angle_l_beta	ankle_angle_l	subtalar_angle_l	mtp_angle_l	lumbar_extension	lumbar_bending	lumbar_rotation	arm_flex_r	arm_add_r	arm_rot_r	elbow_flex_r	pro_sup_r	wrist_flex_r	wrist_dev_r	arm_flex_l	arm_add_l	arm_rot_l	elbow_flex_l	pro_sup_l	wrist_flex_l	wrist_dev_l
      5.15000000	      0.26650112	      1.08486596	     -0.33825878	     -0.38582172	      0.70174489	     -1.02927252	     58.29164481	     -1.10508664	      3.11730815	      5.44549505	      0.09504182	      0.81885250	      0.00000000	      0.00000000	     52.75131542	      0.84715409	     -8.38582503	     91.09776045	      1.58995586	     28.74673304	      0.00000000	      0.00000000	    -19.51785951	     -3.50153684	      1.06518013	     89.89116780	    -12.41957874	     13.78986269	     33.33566357	     79.28759493	      0.00000000	      0.00000000	     89.88962105	    -17.04930603	     16.06870326	     41.35412965	     81.58753788	      0.00000000	      0.00000000
      5.15500000	      0.27807318	      1.03093470	     -0.47924981	     -0.38552422	      0.70152724	     -1.02892968	     58.25211505	     -0.95463730	      3.09792496	      5.43259648	      0.09481670	      0.91561136	      0.00000000	      0.00000000	     52.73225149	      0.67610247	     -8.41677668	     91.18461585	      1.59147177	     28.83768523	      0.00000000	      0.00000000	    -19.50246448	     -3.48814588	      1.19564202	     89.89061646	    -12.37237012	     14.41164952	     33.38871984	     74.67892449	      0.00000000	      0.00000000	     89.88941429	    -17.11078257	     16.67849395	     41.43884359	     77.00120660	      0.00000000	      0.00000000
      5.16000000	      0.25624772	      1.07773297	     -0.44003795	     -0.38541928	      0.70135486	     -1.02902822	     58.36028615	     -1.03036007	      3.00617008	      5.61890929	      0.09806847	      1.01941075	      0.00000000	      0.00000000	     52.77340119	      0.76606110	     -8.41711728	     91.20587889	      1.59184288	     28.83864400	      0.00000000	      0.00000000	    -19.47763446	     -3.51951738	      1.16586928	     89.89088589	    -12.40606487	     13.49363165	     33.29295267	     81.44243034	      0.00000000	      0.00000000	     89.88912480	    -17.00068511	     15.70611131	     41.26908702	     84.25488242	      0.00000000	      0.00000000
      5.16500000	      0.26761630	      1.10937618	     -0.45356816	     -0.38530570	      0.70120804	     -1.02899880	     58.35663420	     -1.05492876	      3.02132980	      5.61108403	      0.09793189	      1.08591319	      0.00000000	      0.00000000	     52.77177207	      0.79389183	     -8.42234936	     91.25134465	      1.59263641	     28.84956152	      0.00000000	      0.00000000	    -19.48745708	     -3.55227283	      1.17122788	     89.89056651	    -12.41836222	     13.48768307	     33.27373325	     81.53026511	      0.00000000	      0.00000000	     89.88955962	    -16.95809617	     15.66166614	     41.22942133	     84.10248246	      0.00000000	      0.00000000
      5.17000000	      0.27422102	      1.10865027	     -0.47948925	     -0.38515886	      0.70103231	     -1.02896232	     58.36439910	     -1.03863653	      3.00107641	      5.65105896	      0.09862959	      1.10074178	      0.00000000	      0.00000000	     52.76440629	      0.78474776	     -8.43137394	     91.27916930	      1.59312204	     28.88976519	      0.00000000	      0.00000000	    -19.48626965	     -3.54723041	      1.20010801	     89.89089470	    -12.41199672	     13.47761140	     33.29756110	     81.48000044	      0.00000000	      0.00000000	     89.88939757	    -16.99834530	     15.74377326	     41.27753965	     84.19247273	      0.00000000	      0.00000000
      5.17500000	      0.29076167	      1.09730759	     -0.44160802	     -0.38505573	      0.70095718	     -1.02896342	     58.33625560	     -1.07286521	      2.92770549	      5.65352672	      0.09867266	      1.07149658	      0.00000000	      0.00000000	     52.74808113	      0.80707799	     -8.39190037	     91.29467697	      1.59339270	     28.93823067	      0.00000000	      0.00000000	    -19.50605183	     -3.52746282	      1.17671329	     89.89094405	    -12.42756587	     13.42898084	     33.29040343	     81.62618884	      0.00000000	      0.00000000	     89.88869357	    -16.94318932	     15.67397289	     41.23062951	     83.99696442	      0.00000000	      0.00000000
      5.18000000	      0.25526786	      1.15067808	     -0.50587149	     -0.38497899	      0.70075910	     -1.02886194	     58.40455984	     -1.05827441	      2.98773715	      5.70197327	      0.09951821	      1.09893743	      0.00000000	      0.00000000	     52.78234637	      0.79941560	     -8.47066507	     91.31251602	      1.59370405	     28.93912722	      0.00000000	      0.00000000	    -19.46608757	     -3.60088651	      1.23242141	     89.89079178	    -12.47147396	     13.56064857	     33.29921191	     81.53589826	      0.00000000	      0.00000000	     89.88942584	    -16.94372064	     15.81596145	     41.25908931	     83.68859123	      0.00000000	      0.00000000
      5.18500000	      0.37054638	      1.08460676	     -0.45850233	     -0.38481609	      0.70085482	     -1.02885531	     58.18508365	     -1.06993353	      2.95468244	      5.53825620	      0.09666081	      1.08176359	      0.00000000	      0.00000000	     52.66049185	      0.80887200	     -8.36140295	     91.35049942	      1.59436699	     28.97426690	      0.00000000	      0.00000000	    -19.59384127	     -3.50473268	      1.19789156	     89.89015627	    -12.41636595	     14.15449701	     33.38557572	     76.07282452	      0.00000000	      0.00000000	     89.88964372	    -16.99100419	     16.50416599	     41.39265800	     78.04618263	      0.00000000	      0.00000000
      5.19000000	      0.29873251	      1.18091991	     -0.51176438	     -0.38470056	      0.70065586	     -1.02881248	     58.32855152	     -1.09309182	      2.98023140	      5.66573038	      0.09888565	      1.04322311	      0.00000000	      0.00000000	     52.72545523	      0.84270892	     -8.47239271	     91.34329313	      1.59424121	     29.03964035	      0.00000000	      0.00000000	    -19.51134136	     -3.62277195	      1.24100453	     89.89076431	    -12.44306232	     13.38571831	     33.29639685	     81.31711603	      0.00000000	      0.00000000	     89.88895614	    -16.87801113	     15.64307210	     41.22884192	     84.21517813	      0.00000000	      0.00000000
      5.19500000	      0.29864269	      1.20710067	     -0.52962603	     -0.38461413	      0.70052940	     -1.02877807	     58.34524253	     -1.10196156	      2.95447295	      5.67856960	      0.09910974	      1.02817724	      0.00000000	      0.00000000	     52.73760719	      0.86252379	     -8.49033151	     91.37394736	      1.59477623	     29.01130276	      0.00000000	      0.00000000	    -19.51312831	     -3.64025607	      1.23431404	     89.89061001	    -12.42331880	     13.38125976	     33.30142706	     81.31432107	      0.00000000	      0.00000000	     89.88966223	    -16.91020721	     15.68825280	     41.23885320	     84.23516446	      0.00000000	      0.00000000
